# xmcd CD database file
#
# Track frame offsets:
#	150
#	24872
#	49331
#	66385
#	93283
#	113930
#	132719
#	156178
#	181987
#	207506
#	230902
#	248049
#	268577
#	295604
#	316859
#	327248
#
# Disc length: 4669 seconds
#
# Revision: 0
# Processed by: cddbd v1.5.2PL0 Copyright (c) Steve Scherf et al.
# Submitted via: CDex 1.51
#
DISCID=ed123b10
DTITLE=Peter "Banjo" Meyer - Party All My Troubles Away
DYEAR=2006
DGENRE=Jazz
TTITLE0=Black Benny
TTITLE1=High Society
TTITLE2=Oh! Frenchy
TTITLE3=Wabash Blues
TTITLE4=Salee Dame
TTITLE5=Party All My Troubles Away
TTITLE6=In The Garden
TTITLE7=Hotter Than That
TTITLE8=Original Dixiland One Step
TTITLE9=Washboard Blues
TTITLE10=Ride On
TTITLE11=Four Or Five Times
TTITLE12=Everyday I Have The Blues
TTITLE13=Go To The Mardi Gras
TTITLE14=A Hundred Years From Today
TTITLE15=Eh, Là Bas
EXTD=YEAR: 2006
EXTT0=
EXTT1=
EXTT2=
EXTT3=
EXTT4=
EXTT5=
EXTT6=
EXTT7=
EXTT8=
EXTT9=
EXTT10=
EXTT11=
EXTT12=
EXTT13=
EXTT14=
EXTT15=
PLAYORDER=
